<svg width="96" height="96" viewBox="0 0 480 480" fill="none" xmlns="http://www.w3.org/2000/svg">
<rect width="480" height="480" fill="#D9D9D9"/>
<path d="M44 294.95C67.5518 190.708 79.3277 133.927 79.3277 124.607C79.3277 105.278 78.6911 89.4 77.4181 76.9738L76.4633 70.7607C79.3277 68.6897 83.7834 65.9283 89.8305 62.4766C96.1959 59.0249 110.995 54.0199 134.229 47.4617C157.781 40.9034 183.879 36.4162 212.523 34C190.244 82.324 167.965 145.145 145.686 222.464C160.008 222.464 172.739 221.083 183.879 218.321C195.018 215.215 202.656 212.281 206.794 209.52L213 204.86L193.904 311C154.121 303.061 111.95 298.056 67.3927 295.985L44 294.95Z" fill="#E5117E" fill-opacity="0.69"/>
<path d="M396.493 164C395.864 182.866 395.55 204.353 395.55 228.46C395.55 252.567 396.65 280.692 398.851 312.834C401.367 344.627 404.354 366.813 407.812 379.39L413 397.733C391.934 416.25 362.536 436.339 324.806 458C325.121 445.422 325.278 433.02 325.278 420.791C325.278 408.563 325.121 396.685 324.806 385.155C312.23 387.601 299.967 388.824 288.02 388.824C276.386 388.824 266.796 388.649 259.25 388.299C254.849 402.275 248.718 423.586 240.857 452.235C229.538 445.947 217.119 436.339 203.599 423.412C190.079 410.135 179.546 397.034 172 384.107C181.747 373.276 190.708 357.904 198.883 337.989C216.49 296.414 232.525 247.152 246.988 190.203C314.902 184.613 364.737 175.879 396.493 164ZM314.902 245.754C302.954 265.668 288.491 300.431 271.513 350.043C278.115 350.392 295.408 350.567 323.391 350.567C321.505 314.232 319.147 283.487 316.317 258.332L314.902 245.754Z" fill="#E5117E" fill-opacity="0.69"/>
</svg>
